<mxfile host="app.diagrams.net" modified="2024-03-13T18:19:58.174Z" agent="Mozilla/5.0 (Windows NT 10.0; Win64; x64) AppleWebKit/537.36 (KHTML, like Gecko) Chrome/122.0.0.0 Safari/537.36" version="24.0.6" etag="aGnP9VpEsTtEgcA3G2hC" type="github">
  <diagram name="Page-1" id="4s-TvWCz7Tmk24RQa8lW">
    <mxGraphModel>
      <root>
        <mxCell id="0" />
        <mxCell id="1" parent="0" />
      </root>
    </mxGraphModel>
  </diagram>
</mxfile>
